<svg xmlns="http://www.w3.org/2000/svg" viewBox="0 0 100 100"><circle fill="#F8A076" cx="50" cy="50" r="50"/><path fill="#090C10" d="M92 66.6C88.2 75.5 80.8 80 69.7 80c-2 0-4.2.3-6.6.8-3.6.8-5.3 1.8-5.3 3.2 0 .4.3.9.9 1.5.6.6 1.1.8 1.5.8-2.1 0-.7.1 4.3.2s8.1.2 9.4.2c-7.4 4.3-19.7 6.3-37 6-5.7-.1-10.6-2.6-14.6-7.5-4-4.7-6-9.9-6-15.7 0-6.1 2.1-11.3 6.2-15.6 4.1-4.3 9.2-6.4 15.3-6.4 1.4 0 3.2.3 5.4.9 2.2.6 3.8.9 4.5.9 3.1 0 7-1.3 11.7-3.9 4.7-2.6 6.9-3.9 6.6-3.9-.8 8.9-3.8 14.9-8.9 17.9-3.6 2.1-5.5 4.2-5.5 6.2 0 1.3.8 2.3 2.3 3.1 1.2.6 2.5.9 3.9.9 2.2 0 4.4-1.4 6.5-4.1 2.1-2.7 3.1-5.2 2.8-7.4-.3-2.5-.1-5.6.5-9.2.2-1 .8-2.3 1.8-3.8 1.1-1.5 2-2.4 2.9-2.7 0 .8-.3 2-.8 3.8-.6 1.8-.8 3.1-.8 3.9 0 1.9.5 3.3 1.5 4.3 1.5-.6 2.9-2.5 4.1-5.7 1-2.5 1.6-4.8 1.8-7.1-3.6-.2-7-1.8-10.2-4.8-3.3-3.1-4.9-6.4-4.9-9.9 0-.6.1-1.2.3-1.8.5.8 1.3 2 2.3 3.6 1.4 2.1 2.5 3.2 3.3 3.2 1 0 1.5-1.1 1.5-3.2 0-2.7-.7-5.2-2.2-7.4-1.6-2.6-3.7-3.9-6.2-3.9-1.2 0-3 .6-5.3 1.9-2.4 1.3-4.5 1.9-6.5 1.9-.6 0-3.2-.8-7.9-2.3 8.2-1.4 12.3-2.6 12.3-3.7 0-2.9-5.6-4.8-16.9-5.9-1.1-.1-3.1-.3-6.1-.5.3-.4 2.8-.9 7.3-1.4 3.8-.4 6.5-.6 8-.6 20.2 0 33 9.8 38.4 29.4.9-.8 1.4-2.1 1.4-3.9 0-2.3-.7-5.2-2-8.8-.5-1.4-1.3-3.4-2.4-6.2 7 8.9 10.4 17.3 10.4 25.2 0 4.2-1 8-2.9 11.4-1.3 2.3-3.7 5.2-7.1 8.8-3.5 3.6-5.9 6.4-7.1 8.3 4.7-1.3 7.7-2.2 9.2-2.9 3.2-1.4 6.2-3.6 8.8-6.5-.2 1.2-.7 2.8-1.6 5zm-55.5-50c0 1.5-.8 2.5-2.5 2.9l-3.4.5c-1.2.6-2.9 2.9-5.2 7-.3-1.3-.6-3.1-1.1-5.3-.8.1-2 .8-3.8 2-.8.6-2 1.5-3.7 2.7.5-3.1 2.2-6.1 5.1-9.3 3.1-3.5 6-5.2 8.9-5.2 3.8 0 5.7 1.6 5.7 4.7zm22.1 11.7c0 1.4-.8 2.7-2.4 3.6-1.6 1-3.1 1.5-4.6 1.5-2 0-3.9-1.1-5.5-3.4-2-2.8-3.9-4.6-6-5.5.4-.4.9-.6 1.5-.6.8 0 2.1.6 3.9 1.8 1.8 1.2 3 1.8 3.5 1.8.4 0 1.1-.6 2.1-1.8 1-1.2 2.1-1.8 3.2-1.8 2.9-.1 4.3 1.4 4.3 4.4z"/></svg>