<svg xmlns="http://www.w3.org/2000/svg" viewBox="0 0 100 100"><circle fill="#BCD9E8" cx="50" cy="50" r="50"/><path fill="#090C10" d="M67.5 83.7C62.7 88.6 56.8 91 49.8 91c-7.9 0-14.1-2.7-18.7-8.1-4.4-5.1-6.5-11.7-6.5-19.6 0-8.5 3.7-18.3 11.2-29.2 6.1-9 13.2-16.8 21.4-23.6-1.2 5.5-1.8 9.4-1.8 11.7 0 5.3 1.7 10.5 5 15.5 4.1 6 7.2 10.4 9.4 13.3 3.3 5 5 10 5 14.7-.1 7.2-2.5 13.2-7.3 18zm-.1-27.3c-1.3-2.9-2.8-4.8-4.5-5.7.3.5.4 1.2.4 2.2 0 1.8-.5 4.4-1.5 7.7l-1.7 5.1c0 3 1.5 4.5 4.5 4.5 3.2 0 4.7-2.1 4.7-6.3 0-2.2-.7-4.7-1.9-7.5z"/></svg>