<svg xmlns="http://www.w3.org/2000/svg" viewBox="0 0 100 100"><circle fill="#F8F6DA" cx="50" cy="50" r="50"/><path fill="#090C10" d="M97.7 57.1c-6.6-3.7-10.8-5.6-12.6-5.6-1.3 0-2.4 1-3.2 3.1-.8 2.1-2.3 3.1-4.5 3.1-.9 0-2.8-.3-5.7-1-1.6 2.4-2.4 4-2.4 4.7 0 .9.7 2 2.1 3.3 1.4 1.3 2.5 1.9 3.5 1.9.6 0 1.4-.1 2.4-.4 1-.2 1.7-.4 2.1-.4 1 0 1.5 1.9 1.5 5.7 0 3.6-.8 9.2-2.5 16.7-2.2-8.6-4.5-12.9-6.9-12.9-.3 0-1 .3-2.1.8s-1.8.8-2.3.8c-2.4 0-4.6-2.2-6.6-6.7-3.9.6-5.8 2.6-5.8 5.9 0 1.7.8 3 2.3 4 1.6 1 2.3 1.7 2.3 2.1 0 2.3-3.3 5.8-10 10.5-3.5 2.5-6 4.3-7.3 5.3 1.2-1.5 2.4-3.5 3.5-5.9 1.3-2.8 2-4.9 2-6.4 0-.8-1-2-2.9-3.5s-2.9-3.1-2.9-4.8c0-1.4.5-3.2 1.5-5.3-1.1-1.3-2.4-1.9-3.9-1.9-3.4 0-5 1.1-5 3.3v3.4c.1 2.8-2 4.2-6.3 4.2-3.3 0-8.8-.8-16.5-2.3 8.7-2.2 13.1-4.7 13.1-7.6 0 .3-.2-.7-.5-3-.3-2.6 1.5-5 5.6-7.1-.8-3.9-2.8-5.8-6.1-5.8-.5 0-1.4.9-2.8 2.6-1.3 1.8-2.6 2.7-3.8 2.7-2 0-4.6-2.2-7.8-6.6-1.5-2.2-3.8-5.4-6.9-9.7 1.9 1 3.9 2 5.8 3 2.5 1.2 4.5 1.8 6.1 1.8 1.2 0 2.3-1 3.5-3.1 1.1-2.1 2.6-3.1 4.5-3.1.3 0 1.9.5 5 1.5 1.6-2.4 2.4-4.2 2.4-5.4 0-1-.6-2.2-1.8-3.5-1.2-1.3-2.3-2-3.3-2-.4 0-1.1.1-2 .4-.9.3-1.5.4-2 .4-1.5 0-2.3-1.9-2.3-5.7 0-1 1-6.8 2.9-17.3-.1 1.3.5 3.6 1.6 7.1 1.4 4.2 3.1 6.3 5 6.3.3 0 1-.3 2-.8s1.8-.8 2.4-.8c1.9 0 3.5 1.1 4.8 3.3l1.9 3.4c1.8 0 3.2-.6 4.4-1.9 1.2-1.3 1.8-2.8 1.8-4.5 0-1.8-.8-3.3-2.3-4.2-1.6-1-2.3-1.7-2.3-2.2 0-1.8 2.8-4.8 8.3-9 4.5-3.4 7.4-5.3 8.7-5.9-3.6 4.8-5.4 8.4-5.4 10.7 0 1.2.7 2.4 2.1 3.8 1.8 1.6 2.8 2.7 3 3.4.8 1.9.8 4.6-.3 7.9 2.3 1.6 4 2.4 5.2 2.4 2.4 0 3.7-1.3 3.7-3.8 0-.3-.1-1.1-.3-2.4-.2-1.3-.3-2.1-.2-2.3.3-1.2 2.7-1.8 6.9-1.8 2.7 0 8.3.8 16.8 2.3-1.9.5-4.6 1.3-8.3 2.3-3.4 1-5 2.1-5 3.4 0 .6.2 1.6.6 3 .4 1.4.6 2.5.6 3.2 0 1.2-.8 2.3-2.3 3.3l-4.3 3c1 1.9 1.7 2.9 2 3.3.8 1 2 1.5 3.4 1.5 1 0 1.9-.9 2.8-2.6.8-1.8 2.2-2.7 4-2.7 2.3 0 4.8 2.1 7.7 6.3 1.7 2.4 4.2 6 7.6 10.8zm-28-7.4c0-5.4-2-10.1-5.9-14-4-4-8.6-5.9-14-5.9-5.5 0-10.2 2-14.1 5.9-4 3.9-6 8.6-6.1 14.1-.1 5.4 1.9 10 6 13.9 4.1 3.9 8.8 5.9 14.2 5.9 5.7 0 10.5-1.9 14.3-5.6 3.8-3.8 5.7-8.5 5.6-14.3zm-1.9 0c0 5.1-1.7 9.4-5.2 12.7-3.5 3.4-7.7 5-12.9 5-5 0-9.2-1.7-12.7-5.2-3.5-3.4-5.3-7.7-5.3-12.6 0-4.9 1.8-9.1 5.4-12.6 3.6-3.5 7.8-5.2 12.7-5.2 4.9 0 9.1 1.8 12.7 5.3 3.5 3.7 5.3 7.9 5.3 12.6z"/></svg>